<?xml version="1.0" encoding="UTF-8" standalone="no"?>
<!DOCTYPE svg PUBLIC "-//W3C//DTD SVG 1.1//EN" "http://www.w3.org/Graphics/SVG/1.1/DTD/svg11.dtd">
<svg width="100%" height="100%" viewBox="0 0 33 33" version="1.1" xmlns="http://www.w3.org/2000/svg" xmlns:xlink="http://www.w3.org/1999/xlink" xml:space="preserve" xmlns:serif="http://www.serif.com/" style="fill-rule:evenodd;clip-rule:evenodd;stroke-linejoin:round;stroke-miterlimit:2;">
    <g transform="matrix(0.538511,-0.538511,0.538511,0.538511,-1.22182,17.3105)">
        <path d="M10.975,25.913C11.029,25.488 10.945,26.901 10.094,27.75C8.599,29.239 4.093,30.898 2.598,29.409C1.104,27.92 2.77,23.43 4.264,21.941C5.106,21.102 6.508,20.985 6.105,21.041C6.313,21.973 6.952,23.084 7.947,24.077C8.937,25.065 10.044,25.701 10.975,25.913Z" style="fill:rgb(239,157,94);"/>
        <path d="M7.331,21.078C6.922,21 6.508,20.985 6.105,21.041C6.313,21.973 6.952,23.084 7.947,24.077C8.937,25.065 10.044,25.701 10.975,25.913C11.029,25.488 11.004,25.048 10.911,24.616C10.342,24.171 9.703,23.598 8.973,22.873C8.291,22.195 7.751,21.603 7.331,21.078Z" style="fill:rgb(215,117,84);"/>
        <g transform="matrix(0.928486,0.928486,-0.928486,0.928486,17.207,-14.9382)">
            <path d="M11.445,23.341C9.013,23.536 7.973,24.54 6.794,24.692C3.764,25.085 6.68,16.695 10.384,14.637C10.384,14.525 10.384,14.411 10.385,14.296C10.409,6.554 15.207,0.305 16.007,0.258C16.795,0.235 21.883,6.516 21.857,14.261C21.856,14.516 21.855,14.763 21.852,15.002C25.475,16.55 28.203,25.025 25.237,24.743C24.059,24.631 23.058,23.604 20.472,23.586C19.867,24.346 18.751,24.787 15.928,24.796C12.772,24.806 11.909,24.247 11.445,23.341Z" style="fill:url(#_Radial1);"/>
        </g>
        <path d="M22.811,9.166C24.366,10.724 24.366,13.25 22.811,14.809C21.255,16.367 18.734,16.367 17.178,14.809C15.623,13.25 15.623,10.724 17.178,9.166C18.734,7.607 21.255,7.607 22.811,9.166ZM21.416,10.58C20.633,9.801 19.362,9.801 18.576,10.58C17.793,11.359 17.793,12.622 18.576,13.401C19.361,14.18 20.633,14.18 21.416,13.401C22.2,12.622 22.2,11.359 21.416,10.58Z" style="fill:rgb(115,0,184);"/>
    </g>
    <defs>
        <radialGradient id="_Radial1" cx="0" cy="0" r="1" gradientUnits="userSpaceOnUse" gradientTransform="matrix(13,6,-6,13,17,24)"><stop offset="0" style="stop-color:rgb(183,0,235);stop-opacity:1"/><stop offset="1" style="stop-color:rgb(119,110,255);stop-opacity:1"/></radialGradient>
    </defs>
</svg>
